<svg width="256" height="256" viewBox="0 0 256 256" fill="none" xmlns="http://www.w3.org/2000/svg"><circle cx="128" cy="128" r="127.5" fill="#FCD0AF" stroke="#FCD0AF"/><path d="M218 194.184H38V61H218V194.184V194.184Z" fill="#FCD0AF"/><path d="M83.8688 132.588C83.8688 141.104 86.143 142.063 95.8573 142.426L95.8575 145.543H57.2453V142.426C65.2777 142.063 67.556 141.104 67.556 132.588V76.9538C67.556 68.428 65.2777 67.4695 57.4854 67.1163V63.9885H125.595L126.08 81.9784H122.721C119.841 72.8674 116.723 69.9919 100.773 69.9919H88.4164C84.7084 69.9919 83.869 70.8293 83.869 74.1892V99.9784H89.9542C102.668 99.9784 105.428 97.6881 106.985 89.1724H110.102V117.958H106.985C105.306 108.363 100.509 105.972 89.9542 105.972H83.869V132.588H83.8688ZM202.725 63.9885H131.248L129.588 81.9885H133.688C136.304 73.1802 140.151 69.9919 148.755 69.9919H158.829V132.588C158.829 141.104 156.551 142.063 147.316 142.426V145.543H186.654V142.426C177.419 142.063 175.142 141.104 175.142 132.588V69.9919H185.212C193.815 69.9919 197.67 73.1802 200.284 81.9885H204.38L202.725 63.9885V63.9885Z" fill="#3E474F"/></svg>