<svg width="256" height="256" viewBox="0 0 256 256" fill="none" xmlns="http://www.w3.org/2000/svg"><circle cx="128" cy="128" r="127.5" fill="white" stroke="white"/><g clip-path="url(#clip0_1_7)"><path d="M199.484 57.8065C199.484 37.1613 179.871 32 164.387 32V35.0968C173.677 35.0968 180.903 38.1935 180.903 45.4194C180.833 46.9344 180.448 48.4182 179.773 49.7763C179.098 51.1345 178.148 52.3373 176.983 53.3082C175.818 54.2792 174.463 54.9969 173.005 55.4159C171.548 55.8349 170.019 55.946 168.516 55.7419C156.848 54.4953 145.395 51.7188 134.452 47.4839C122.838 43.1079 110.684 40.3298 98.3226 39.2258C93.8385 39.047 89.3639 39.7641 85.1602 41.335C80.9565 42.9059 77.1083 45.2991 73.8404 48.3748C70.5725 51.4504 67.9507 55.1467 66.1281 59.2476C64.3056 63.3484 63.3189 67.7714 63.2258 72.2581C63.1596 77.1759 64.6106 81.9947 67.3812 86.0583C70.1519 90.1219 74.1075 93.2329 78.7097 94.9677L79.7419 92.9032C77.8081 91.9833 76.1889 90.513 75.0871 88.6768C73.9853 86.8405 73.4501 84.7198 73.5484 82.5806C73.9771 79.1665 75.7351 76.0593 78.4407 73.9334C81.1464 71.8075 84.5814 70.8346 88 71.2258C101.079 72.6623 113.916 75.785 126.194 80.5161C138.726 84.1194 151.486 86.8783 164.387 88.7742V120.774L148.903 134.194V135.226L164.387 148.645V193.032C156.545 197.498 147.596 199.646 138.581 199.226C131.067 199.621 123.558 198.344 116.597 195.488C109.636 192.632 103.394 188.268 98.3226 182.71L140.645 162.065V89.8064L89.0323 112.516C94.8089 100.095 104.152 89.6741 115.871 82.5806L114.839 80.5161C98.6563 84.4448 84.1801 93.5056 73.5744 106.344C62.9687 119.183 56.8034 135.109 56 151.742C56.0531 170.89 63.683 189.238 77.2225 202.777C90.762 216.317 109.11 223.947 128.258 224C137.154 224.129 145.987 222.49 154.243 219.177C162.5 215.864 170.016 210.943 176.355 204.7C182.694 198.457 187.729 191.017 191.168 182.812C194.607 174.607 196.381 165.8 196.387 156.903H194.323C188.889 170.082 179.515 181.258 167.484 188.903V146.581L184 133.161V132.129L168.516 118.71V87.7419C172.549 87.9432 176.58 87.3145 180.36 85.8948C184.139 84.4752 187.587 82.2947 190.49 79.4885C193.393 76.6822 195.69 73.31 197.236 69.5804C198.783 65.8509 199.548 61.8436 199.484 57.8065ZM109.677 171.355L97.2903 177.548C89.1289 166.157 85.121 152.312 85.9355 138.323C85.8774 130.983 86.9213 123.675 89.0323 116.645L110.71 107.355L109.677 171.355Z" fill="black"/></g><defs><clipPath id="clip0_1_7"><rect width="143.484" height="192" fill="white" transform="translate(56 32)"/></clipPath></defs></svg>