<svg width="256" height="256" viewBox="0 0 256 256" fill="none" xmlns="http://www.w3.org/2000/svg"><circle cx="128" cy="128" r="127.5" fill="black" stroke="white"/><rect x="38" y="38" width="180" height="180" fill="white"/><path d="M205.816 65.9694H182.358L165.215 164.313L145.366 73.1873C144.464 66.8716 141.757 65.9694 136.344 65.9694H123.713C118.299 65.9694 115.592 67.7738 114.69 73.1873L94.841 164.313L77.6985 65.9694H52.4358L76.7962 184.162C77.6985 189.576 79.5029 190.478 85.8186 190.478H102.961C108.375 190.478 110.179 189.576 111.983 184.162L130.93 98.4499L149.877 184.162C150.78 189.576 152.584 190.478 158.9 190.478H175.14C180.554 190.478 183.26 189.576 184.162 184.162L205.816 65.9694ZM218.448 218H38V38H218V218H218.448Z" fill="black"/></svg>